<?xml version="1.0" encoding="utf-8" ?>
<svg xmlns="http://www.w3.org/2000/svg" xmlns:xlink="http://www.w3.org/1999/xlink" width="949" height="244">
	<path fill="white" d="M827.626 160.428C829.074 160.429 829.472 160.329 830.701 161.187C830.7 162.818 830.65 163.033 829.563 164.294C829.076 164.799 829.003 164.73 828.29 164.767C827.524 163.575 827.679 161.808 827.626 160.428Z"/>
	<path fill="white" d="M119.372 160.571C120.46 161.066 121.075 161.591 121.83 162.512C122.385 166.066 122.116 168.763 120.797 172.086C120.01 171.721 119.337 171.144 118.655 170.615C117.736 166.959 118.176 164.042 119.372 160.571Z"/>
	<path fill="white" d="M119.306 64.1085C120.2 64.5919 121.615 65.0426 121.937 66.0373C122.894 68.9923 122.001 72.6069 120.679 75.2678L120.327 75.0996C119.755 74.8117 118.724 74.128 118.518 73.4929C117.6 70.6529 117.978 66.7405 119.306 64.1085Z"/>
	<path fill="white" d="M119.255 176.595C120.007 177.029 121.588 177.774 121.893 178.608C122.907 181.373 121.931 185.179 120.89 187.772C119.822 187.679 119.493 187.419 118.598 186.82C117.511 183.271 118.142 180.017 119.255 176.595Z"/>
	<path fill="white" d="M119.111 193.153C120.027 193.401 121.438 193.988 121.883 194.844C123.134 197.247 121.854 201.702 120.99 204.071L120.154 204.106C119.725 203.84 118.983 203.517 118.723 203.097C117.196 200.638 118.402 195.767 119.111 193.153Z"/>
	<path fill="white" d="M119.353 144.25C120.462 144.894 121.335 145.365 121.966 146.539C122.347 149.937 122.313 152.692 120.829 155.832L118.543 154.41C117.676 150.709 117.962 147.731 119.353 144.25Z"/>
	<path fill="white" d="M119.027 112.144C119.925 112.592 120.736 113.198 121.557 113.771C122.884 116.591 122.033 120.65 121.29 123.544C120.292 123.373 119.531 122.955 118.654 122.463C117.682 118.937 117.989 115.597 119.027 112.144Z"/>
	<path fill="white" d="M96.1227 38.1235C98.8486 37.9651 102.907 37.2163 105.252 38.8918C105.572 40.1822 105.506 40.8529 104.945 42.0582C102.178 42.1303 98.2084 42.7254 95.8692 40.9753C95.6575 39.6353 95.6097 39.3635 96.1227 38.1235Z"/>
	<path fill="white" d="M111.651 37.9878C114.455 37.8087 118.247 37.4563 120.857 38.5608C121.743 39.8198 121.513 40.1955 121.353 41.6713C118.583 42.182 115.303 42.4045 112.601 41.5476C111.504 40.41 111.749 39.5341 111.651 37.9878Z"/>
	<path fill="white" d="M118.912 95.9243C119.921 96.4316 121.424 96.8783 121.934 97.9334C123.075 100.295 121.92 104.732 121.138 107.075C119.932 106.982 119.579 106.694 118.59 106.027C117.528 102.975 118.085 98.9774 118.912 95.9243Z"/>
	<path fill="white" d="M118.966 80.0946C119.904 80.344 121.232 80.745 121.726 81.6242C123.089 84.0508 121.847 88.8413 121.095 91.2871C120.106 91.2949 119.373 90.6149 118.619 90.0531C117.5 87.2646 117.903 82.8439 118.966 80.0946Z"/>
	<path fill="white" d="M113.044 209.85L118.317 209.773C119.959 209.821 120.742 210.189 121.837 211.359C121.51 212.802 121.541 212.924 120.387 213.824C117.815 214.061 115.134 214.492 112.601 213.826C111.748 212.852 111.798 212.669 111.7 211.359L113.044 209.85Z"/>
	<path fill="white" d="M118.701 47.7665C119.811 47.9513 120.68 48.4961 121.637 49.0498C123.109 51.3197 122.103 56.0253 121.66 58.5892C120.268 58.4528 119.697 58.4886 118.539 57.6433C117.346 54.9298 118.136 50.598 118.701 47.7665Z"/>
	<path fill="white" d="M97.2803 209.832L99.4832 209.774C101.268 209.747 104.004 209.589 105.353 210.896C105.543 212.1 105.404 212.39 104.955 213.543L103.696 214.097C101.286 214.202 99.0175 214.231 96.6145 213.92C95.6328 213.144 95.6941 213.071 95.4855 211.822C95.9691 210.585 96.1365 210.541 97.2803 209.832Z"/>
	<path fill="white" d="M118.641 128.356C119.246 128.49 121.378 129.263 121.699 129.754C123.252 132.128 122.106 137.023 121.552 139.655C120.221 139.489 119.372 139.38 118.393 138.357C117.562 134.943 118.037 131.748 118.641 128.356Z"/>
	<path fill="white" d="M827.345 170.614C828.66 170.511 829.607 170.441 830.823 171.078C830.968 177.9 831.698 185.836 830.876 192.573C830.694 194.069 830.335 194.168 829.207 195.049L828.29 194.991C827.208 193.433 827.826 189.676 827.882 187.791C828.049 182.237 828.697 176.042 827.345 170.614Z"/>
	<path fill="white" d="M384.441 160.89C385.119 160.805 385.851 160.708 386.533 160.782C387.914 160.932 389.602 162.171 390.42 163.258C391.732 165 391.719 166.691 391.418 168.763C390.18 170.125 389.233 170.709 387.473 171.245L387.108 171.346C385.625 171.619 384.159 171.557 382.892 170.701C381.704 169.283 381.267 168.202 381.434 166.337C381.649 163.922 382.603 162.41 384.441 160.89ZM384.387 164.594C383.888 165.923 383.399 166.952 383.909 168.367C384.7 169.076 385.434 169.235 386.458 169.443L387.02 169.163L388.819 168.531C389.155 167.204 389.098 166.859 388.756 165.522L387.616 164.386C386.545 164.417 385.442 164.398 384.387 164.594Z"/>
	<path fill="white" d="M757.886 162.279L759.901 162.151C760.676 163.142 760.378 168.702 760.409 170.207C762.23 170.203 763.93 170.316 765.726 170.615L765.98 172.004C764.752 173.148 762.152 172.957 760.454 173.116L760.36 186.084C760.354 187.918 760.028 190.18 761.1 191.678C763.165 192.531 764.48 192.517 766.66 192.108L767.363 192.607L766.502 193.827L766.13 194.494C764.793 195.392 763.27 195.624 761.685 195.35C754.117 194.045 758.119 181.181 757.382 175.756C757.347 175.495 757.167 174.001 757.016 173.856C756.149 173.022 754.668 173.541 753.686 172.12L754.149 170.635L756.543 170.204C757.864 168.196 757.128 164.75 757.886 162.279Z"/>
	<path fill="white" d="M807.963 162.28L810.681 162.116C811.79 163.211 811.365 166.866 811.386 168.586C811.388 168.776 811.326 169.797 811.401 169.914C811.962 170.788 815.88 169.864 817.051 171.078L816.955 172.467C815.653 173.338 813.001 173.098 811.432 173.148C811.279 177.619 811 182.158 811.13 186.63C811.168 187.919 811.122 189.93 811.764 191.06C812.888 193.039 815.072 191.994 816.833 192.487L817.042 192.548L818.322 193.765L817.967 194.59L816.846 195.098C815.416 195.59 812.136 195.753 810.791 195.022C805.698 192.252 809.212 178.5 807.901 173.542L805.408 172.93C804.85 171.959 804.906 171.853 805.121 170.759L808.134 169.689C808.269 167.154 808.296 164.809 807.963 162.28Z"/>
	<path fill="white" d="M735.703 170.152C737.01 169.976 738.37 170.042 739.636 170.43C741.49 170.998 742.889 172.685 743.738 174.352C745.494 177.801 744.754 184.011 744.705 187.813C744.677 190.027 744.889 192.569 744.205 194.691C743.106 195.17 743.077 195.219 741.94 194.865C741.467 193.221 741.699 191.243 741.722 189.534C741.778 185.347 742.157 180.312 740.732 176.334C740.374 175.335 739.444 173.964 738.461 173.533C736.05 172.475 732.28 174.234 729.989 175.157C729.321 176.543 727.797 177.766 727.239 179.149C726.142 181.869 726.999 188.138 726.969 191.234C726.96 192.164 726.999 193.877 726.467 194.657C726.057 195.259 725.176 195.192 724.493 195.3L723.896 194.228L723.743 177.585C723.731 175.787 723.371 172.848 724.145 171.226C724.383 170.725 724.919 170.674 725.42 170.49C727.229 171.308 726.295 172.669 727.505 174.052C730.206 172.362 732.631 171.043 735.703 170.152Z"/>
	<path fill="white" d="M608.863 170.614C609.813 170.535 610.804 170.63 611.757 170.666C612.783 172.028 612.376 173.706 612.36 175.381C612.318 179.67 611.507 187.942 614.287 191.249C615.047 192.153 616.284 192.564 617.436 192.658C619.989 192.868 622.28 192.265 624.243 190.54C628.916 186.434 627.229 177.045 627.567 171.361L628.484 170.577L629.964 170.814C630.182 171.121 630.407 171.478 630.485 171.851C630.945 174.036 630.796 177.516 629.576 179.41C631.752 183.14 630.267 189.907 631.434 194.459L630.659 195.255L629.081 194.691C628.193 193.509 627.806 192.294 627.362 190.905C625.006 192.875 622.615 194.655 619.606 195.466C617.464 196.043 614.807 195.775 612.889 194.632C606.374 190.75 610.374 176.797 608.863 170.614Z"/>
	<path fill="white" d="M478.017 171.076C478.985 170.861 479.999 170.863 480.987 170.82C481.143 170.949 481.798 171.398 481.855 171.541C482.094 172.148 481.866 174.158 481.871 174.892C481.901 179.277 481.096 188.306 484.346 191.563C485.202 192.42 486.436 192.976 487.655 192.968C489.402 192.958 491.493 192.104 492.899 191.118C494.159 190.236 495.924 188.822 496.51 187.334C496.931 186.266 496.803 184.467 496.83 183.312L497.041 174.315C497.101 172.922 496.89 171.853 497.901 170.828L499.808 171.019L499.981 172.096C500.31 174.481 500.38 177.039 498.935 178.951C500.988 182.09 500.337 186.056 500.463 189.664C500.518 191.244 500.894 192.843 500.969 194.459L500.222 195.154L498.827 195.011C497.601 193.907 497.465 192.707 496.963 191.154C495.286 192.368 493.555 193.744 491.71 194.691C489.512 195.818 486.557 196.111 484.213 195.349C477.361 193.124 478.661 182.302 478.783 176.75C478.814 175.345 479.131 173.114 478.475 171.859L478.091 171.182L478.017 171.076Z"/>
	<path fill="white" d="M887.547 170.152C888.372 170.039 889.244 169.92 890.076 169.975C891.808 170.089 893.361 170.793 894.508 172.1C898.474 176.618 896.898 188.683 896.494 194.459L895.548 195.169L894.09 194.824C893.502 193.545 893.828 191.109 893.831 189.686C893.84 185.757 893.998 181.854 893.306 177.968C892.923 175.817 892.165 174.684 890.383 173.444C887.124 172.579 884.539 173.902 881.65 175.245C881.329 176.937 879.536 178.308 879.21 180.266C878.665 183.54 879.028 187.317 879 190.649C878.985 192.316 879.257 193.566 878.335 194.979L876.84 195.175L875.93 194.459C875.621 189.739 874.268 174.155 876.443 170.615L877.871 170.493C879.07 171.39 878.995 173.114 879.241 174.573C881.975 172.585 884.347 171.215 887.547 170.152Z"/>
	<path fill="white" d="M293.923 162.742L296.05 162.722C298.623 162.938 301.462 164.141 303.144 166.159C304.504 167.791 305.536 170.352 305.287 172.506C304.985 175.113 302.315 177.348 300.411 178.892C301.604 180.021 303.083 181.025 304.102 182.304C305.51 184.073 305.928 186.402 305.646 188.602C305.29 191.38 304.229 193.128 302.018 194.831C299.097 197.082 295.619 197.656 292.035 197.154C289.74 196.833 286.9 195.475 285.492 193.588C284.837 192.711 284.874 192.511 285.02 191.45L286.368 190.566C288.552 192.189 289.157 193.447 292.029 194.137C294.61 194.676 297.018 194.655 299.37 193.353C300.785 192.571 301.961 190.804 302.363 189.261C302.824 187.493 302.288 185.581 301.359 184.054C299.627 181.207 296.529 180.861 293.551 180.165L292.979 179.18C294.567 176.643 297.919 177.563 299.986 175.618C301.041 174.625 301.668 173.1 301.691 171.664C301.714 170.173 301.211 168.858 300.166 167.791C297.234 164.796 292.544 165.441 289.335 167.611C288.38 168.257 287.399 169.607 286.271 169.594L285.46 168.3C285.514 167.845 285.637 167.426 285.898 167.042C287.734 164.339 290.906 163.38 293.923 162.742Z"/>
	<path fill="white" d="M579.33 160.428C580.685 160.371 581.32 160.209 582.526 160.892L582.992 183.033L595.547 171.763C596.93 170.52 597.585 170.413 599.381 170.504C599.143 171.847 597.947 172.715 597.018 173.7L590.457 180.647C592.235 182.798 595.93 187.568 596.527 190.187C597.969 190.924 598.632 192.378 599.406 193.722C599.755 194.329 599.801 194.306 599.621 194.972L598.454 195.24C594.989 194.259 590.426 185.872 588.188 182.758C586.956 183.722 583.525 185.995 582.825 187.243C582.708 187.452 582.884 189.128 582.888 189.464C582.907 191.217 582.678 192.955 582.456 194.691C581.262 195.186 581.152 195.282 579.919 194.953C578.725 192.698 579.497 187.905 579.517 185.26C579.578 177.105 580.153 168.534 579.33 160.428Z"/>
	<path fill="white" d="M653.563 170.152C654.847 170.154 656.364 170.221 657.591 170.6C660.138 171.385 661.068 173.284 662.25 175.513C665.238 172.435 667.514 170.072 672.088 170.047C673.78 170.037 675.6 170.725 676.784 171.949C680.489 175.776 679.798 183.387 679.728 188.411C679.703 190.159 679.871 193.878 678.618 195.094L676.997 194.983C675.504 192.704 676.571 181.521 675.897 178.004C675.647 176.7 674.651 174.456 673.489 173.732C672.285 172.982 670.112 173.18 668.778 173.487C667.437 173.795 666.243 174.771 665.27 175.701C664.569 176.37 662.931 178.115 662.667 178.954C661.662 182.14 663.577 184.985 661.51 188.209L662.529 189.598C662.593 191.292 662.814 193.087 662.157 194.691C661.226 195.218 661.128 195.187 660.083 194.987C659.077 193.766 659.394 191.946 659.401 190.438C659.421 186.31 660.005 181.342 658.878 177.386C658.268 175.245 657.368 174.248 655.449 173.173C653.391 172.995 651.212 173.256 649.506 174.516C643.265 179.124 646.249 188.158 645.255 194.788C644.057 195.178 643.951 195.272 642.785 194.842L642.446 193.635C641.584 188.867 642.32 182.289 642.288 177.348C642.276 175.454 641.827 172.305 642.938 170.713L644.52 170.557C645.947 171.875 644.905 173.073 645.95 174.419C648.367 172.462 650.517 170.958 653.563 170.152Z"/>
	<path fill="white" d="M452.606 170.614L457.181 170.298C459.973 170.278 463.17 170.862 465.183 173.026C468.705 176.814 467.272 185.292 467.574 190.061C467.682 191.762 468.439 192.968 468.327 194.787L466.854 195.243C464.901 194.34 465.507 193.6 464.306 192.127C462.722 193.159 461.033 194.149 459.271 194.837C454.713 196.617 452.505 195.519 448.238 193.641C447.339 192.287 446.758 190.547 446.61 188.932C446.434 187.015 446.734 185.688 447.987 184.198C452.679 178.614 458.016 181.632 463.876 181.154C464.413 180.073 464.208 179.318 463.994 178.145C463.679 176.42 462.951 174.749 461.436 173.755C456.753 170.684 453.592 174.028 449.246 174.915L448.537 173.624C448.97 172.367 451.448 171.287 452.606 170.614ZM454.236 183.115C452.642 183.869 450.468 184.788 449.815 186.586C449.384 187.775 449.631 189.086 450.173 190.227C450.897 191.753 452.157 192.546 453.716 193.051C455.031 193.477 456.643 193.18 457.916 192.756C460.082 192.253 462.466 191.344 463.68 189.332C464.55 187.89 464.326 186.026 464.13 184.437C461.391 182.634 457.372 182.538 454.236 183.115Z"/>
	<path fill="white" d="M780.842 170.615C783.831 170.369 788.139 169.773 790.879 171.115C798.428 174.815 794.457 187.506 796.824 194.459L796.41 195.154L795.158 195.265C793.65 194.386 793.447 193.859 792.633 192.376C790.874 192.814 789.445 194.388 787.748 195.082C783.856 196.675 780.308 195.269 776.678 193.764L776.52 193.477C775.336 191.235 774.21 188.93 775.039 186.371C775.646 184.498 776.848 183.234 778.504 182.213C780.71 180.853 783.174 180.307 785.744 180.601C787.526 180.805 790.735 181.791 792.258 180.996L792.334 180.487C792.525 178.641 792.031 176.13 790.772 174.708C788.646 172.31 784.543 172.111 781.736 173.171C780.34 173.699 778.815 174.712 777.318 174.66L776.718 173.624C777.207 172.419 779.696 171.295 780.842 170.615ZM782.472 183.116C780.83 183.886 778.841 184.557 778.121 186.357C777.923 188.397 778.035 189.612 778.972 191.45C780.218 192.737 782.127 193.023 783.805 193.444C784.459 193.227 785.407 193.042 785.983 192.697C788.24 192.34 790.41 191.452 791.774 189.508C792.6 188.332 792.357 186.401 792.401 184.968C791.52 183.649 790.455 183.425 788.895 183.116C786.773 182.696 784.593 182.756 782.472 183.116Z"/>
	<path fill="white" d="M700.126 170.152C702.02 169.832 704.237 170.179 705.996 170.91C709.043 172.178 711.917 174.77 713.158 177.877C713.613 179.016 714.545 182.793 714.065 183.877L692.481 184.194C693.328 186.753 694.251 189.544 696.386 191.335C697.847 192.561 700.529 193.414 702.428 193.222C703.657 193.098 705.012 192.707 705.826 191.734C708.137 191.138 708.726 189.412 711.26 189.515L711.764 190.292C710.523 192.625 708.21 194.115 705.798 195.072C703.439 196.007 699.889 195.958 697.542 194.921C694.495 193.575 691.62 190.79 690.447 187.664C689.172 184.269 689.37 180.322 690.902 177.029C692.735 173.091 696.296 171.575 700.126 170.152ZM698.545 172.93C695.217 175.664 693.854 177.39 692.383 181.454L703.757 181.516C705.777 181.533 708.448 181.881 710.364 181.264C710.776 180.148 710.198 178.504 709.728 177.459C708.895 175.61 706.941 173.755 705.016 173.075C702.942 172.343 700.654 172.454 698.545 172.93Z"/>
	<path fill="white" d="M851.861 170.152C855.24 170.235 857.597 170.432 860.437 172.476C862.831 174.199 865.087 177.378 865.535 180.338C866.078 183.923 865.164 188.028 862.944 190.927C860.664 193.902 857.758 195.243 854.109 195.697C852.004 195.829 849.585 195.438 847.756 194.34C844.611 192.451 842.543 189.76 841.674 186.216C840.881 182.982 841.296 179.082 843.058 176.249C845.129 172.92 848.094 171.021 851.861 170.152ZM850.566 173.393C847.809 175.151 845.467 177.058 844.737 180.412C844.122 183.235 844.604 186.398 846.198 188.824C847.331 190.547 849.007 192.165 851.089 192.597C852.087 192.804 853.698 192.689 854.668 192.376C857.16 191.944 858.958 191.049 860.434 188.929C862.034 186.631 862.775 183.746 862.249 180.982C861.874 179.013 860.775 177.282 859.685 175.636C856.364 173.69 854.54 172.78 850.566 173.393Z"/>
	<path fill="white" d="M554.973 170.151C558.01 169.693 561.281 170.504 563.763 172.291C566.693 174.4 568.785 177.682 569.335 181.254C569.774 184.109 568.731 187.866 567.039 190.161C564.752 193.261 561.794 194.958 558.016 195.553C556.168 195.871 554.472 195.801 552.723 195.062C549.761 193.809 547.011 190.875 545.827 187.913C544.568 184.766 544.376 180.824 545.773 177.688C547.593 173.605 551.016 171.679 554.973 170.151ZM553.727 173.392C550.826 176.088 548.355 178.132 548.201 182.391C548.098 185.257 548.778 187.923 550.795 190.045C552.519 191.859 554.314 192.661 556.812 192.704C557.545 192.716 558.3 192.636 558.921 192.213C561.57 191.462 563.333 190.333 564.714 187.89C565.996 185.622 566.22 182.337 565.492 179.837C564.749 177.289 562.842 175.041 560.494 173.799C558.541 172.766 555.821 172.865 553.727 173.392Z"/>
	<path fill="white" d="M324.596 161.353C328.226 160.98 331.138 161.485 334.317 163.355C335.943 164.311 336.775 165.578 337.239 167.374L336.181 168.587C334.891 168.721 332.257 164.663 329.647 164.223C327.249 163.819 325.176 164.032 323.15 165.503C319.435 168.199 319.107 172.766 318.426 176.929C320.082 175.577 321.852 174.339 323.798 173.439C325.002 172.882 327.323 172.008 328.593 172.482C330.771 173.296 333.508 174.121 335.255 175.688C336.262 176.591 337.015 177.556 337.086 178.951C337.497 179.298 337.836 179.673 338.121 180.132C339.293 182.02 339.509 184.469 338.962 186.599C338.14 189.794 335.917 192.411 333.108 194.064C330.226 195.759 326.934 196.154 323.701 195.279C320.99 194.545 318.469 192.337 317.112 189.911C314.305 184.894 314.579 177.359 316.108 171.922C317.597 166.624 319.899 163.973 324.596 161.353ZM324.407 175.707C321.613 177.58 319.358 179.331 318.7 182.85C318.282 185.082 319.065 187.327 320.339 189.149C321.368 190.622 322.864 192.233 324.721 192.541C325.807 192.721 328.17 192.893 329.149 192.376C331.23 192.014 332.877 191.496 334.15 189.703C335.287 188.101 336.571 185.175 336.19 183.165C335.697 180.567 333.602 178.08 331.464 176.634C329.52 175.319 326.636 175.406 324.407 175.707Z"/>
	<path fill="white" d="M358.089 166.909C361.161 166.552 364.224 167.12 366.838 168.862C369.78 170.824 371.791 174.455 372.407 177.892C373.186 182.235 372.188 187.545 369.625 191.139C367.734 193.792 365.159 195.068 362.007 195.58C360.443 195.89 359.004 195.788 357.467 195.372C354.649 194.607 352.31 192.309 350.917 189.83C348.632 185.766 348.284 180.447 349.541 176.017C350.864 171.351 354.08 169.12 358.089 166.909ZM358.411 170.15C355.442 172.301 353.088 174.082 352.48 177.938C351.839 181.992 352.131 186.191 354.647 189.57C356.031 191.429 357.587 192.306 359.882 192.609C360.481 192.688 361 192.589 361.559 192.376C363.709 191.991 365.666 191.273 366.972 189.414C369.104 186.377 369.773 182.365 369.1 178.76C368.644 176.322 367.638 173.017 365.488 171.544C363.506 170.187 360.748 169.829 358.411 170.15Z"/>
	<path fill="white" d="M530.614 160.89C531.882 160.741 532.796 160.438 533.966 161.008L534.22 161.977C534.691 164.028 534.404 166.751 534.414 168.879L534.48 183.309C534.501 185.238 534.491 187.216 534.695 189.135C534.871 190.794 535.86 193.531 534.971 194.979L533.643 195.154C532.24 194.095 532.058 193.389 531.387 191.81C529.564 192.953 527.699 194.427 525.686 195.178C521.62 196.693 518.618 195.127 514.942 193.476C514.831 192.486 513.638 191.295 513.066 190.473C511.614 188.387 510.646 186.454 510.554 183.878C510.42 180.118 511.294 176.526 513.939 173.73C515.922 171.634 518.262 170.07 521.254 170.035C525.294 169.987 528.43 172.295 531.138 175.012C531.429 171.806 532.377 163.5 530.614 160.89ZM520.029 173.393C517.198 175.371 514.642 177.388 514.011 180.962C513.515 183.776 514.444 186.935 516.083 189.223C517.283 190.897 519.591 192.604 521.676 192.913C522.306 193.007 523.182 192.986 523.717 192.622C527.18 191.843 528.681 190.81 530.999 188.125C531.389 184.82 531.472 181.705 531.302 178.383C529.595 176.609 526.626 173.119 524.072 173.063L520.029 173.393Z"/>
	<path fill="white" d="M165.214 35.8851L200.037 35.6522C203.578 35.6727 207.103 35.498 209.679 38.1154C210.742 41.2016 210.076 45.7777 210.039 49.1193L210.019 68.8714C210.038 72.5117 210.664 77.4803 209.906 80.984C209.443 83.1246 208.149 83.9163 206.429 85.0223L203.655 83.7391C202.685 82.751 202.3 81.7615 202.129 80.3981C201.652 76.5822 202.251 72.1247 202.299 68.2456L201.898 44.1124C192.868 43.002 183.292 43.5704 174.19 43.6215C171.169 43.6385 168.203 44.1366 165.2 43.6516C163.809 43.4269 162.981 43.1025 162.169 41.8974C161.402 40.7595 161.72 39.2068 161.951 37.9464C162.971 36.7412 163.696 36.2994 165.214 35.8851Z"/>
	<path fill="white" d="M204.692 167.03C205.715 167.133 206.986 167.205 207.877 167.745C209 168.427 209.411 169.233 209.704 170.495C210.244 172.822 209.946 175.679 209.941 178.078L209.889 192.935C209.881 199.118 210.495 205.73 209.916 211.844C209.818 212.872 209.356 213.808 208.822 214.678C204.485 217.379 195.899 216.01 190.814 216.016L165.83 216.095C165.089 215.995 164.195 215.873 163.557 215.464C162.645 214.88 161.736 213.857 161.557 212.769C161.266 211.012 162.137 210.064 163.102 208.745C165.479 207.245 169.969 207.999 172.735 207.989L190.416 207.96C194.156 207.99 198.074 208.304 201.776 207.781C202.626 203.073 202.446 198.291 202.452 193.526L202.411 171.274C202.436 169.177 203.256 168.43 204.692 167.03Z"/>
	<path fill="white" d="M58.5428 35.9056C63.2795 35.5487 69.2149 35.164 73.8887 35.9373C75.6285 36.2251 77.1895 37.3289 78.9347 37.4985C82.0398 37.8001 85.9849 37.0127 88.7999 38.6023C89.3577 39.9959 89.3873 40.0256 88.8966 41.4383C86.9927 42.7057 82.0972 41.9969 79.6768 42.1724C78.1991 42.2796 76.9854 43.0072 75.59 43.3852C73.9087 43.8406 72.1312 43.9361 70.3989 44.0255C59.7316 44.5762 49.0517 43.4749 38.37 44.0564C36.8386 46.2251 37.4099 59.2387 37.411 62.4183L37.9103 80.0987C37.8245 81.7619 37.1188 82.9147 35.9119 84.0127C34.3621 84.5644 33.803 84.5118 32.2048 84.2553C31.6038 83.8399 31.0557 83.3368 30.7202 82.6793C29.0207 79.3492 29.9844 72.3526 30.0468 68.5716L30.0515 52.7933C30.0334 48.7235 29.1642 42.5783 30.5051 38.8281C30.863 37.827 31.4431 36.9067 32.4057 36.4324C34.348 35.4755 38.4011 35.9839 40.5889 35.987L58.5428 35.9056Z"/>
	<path fill="white" d="M32.7774 167.201C33.9876 167.381 35.4869 167.511 36.449 168.323C37.45 169.168 37.6874 170.56 37.8155 171.791C38.3004 176.451 37.6937 181.327 37.594 186.01C37.4379 193.343 37.6972 200.401 38.4277 207.697C39.1852 208.236 41.4353 208.007 42.3975 208.009C52.371 208.035 62.8705 207.193 72.7978 208.042C75.0228 208.233 76.7694 209.526 78.8905 209.718C82.3449 210.03 86.3963 209.035 89.3006 211.22L89.3659 212.748C87.959 213.983 86.9797 213.83 85.1471 214.045C83.1764 214.112 81.0634 214.136 79.1388 214.572C76.7986 215.101 74.5275 216.055 72.1192 216.223C66.4227 216.62 60.451 216.013 54.7222 215.992C48.3552 215.968 41.9804 216.476 35.6145 216.193C34.0159 216.122 32.3109 215.993 31.1794 214.704C28.5228 211.679 29.4734 179.279 29.9765 173.129C30.2046 170.34 30.598 169.057 32.7774 167.201Z"/>
	<path fill="white" d="M411.64 161.32C417.195 161.155 429.489 159.738 433.769 163.508C435.425 164.966 436.36 166.94 436.507 169.116C436.772 173.029 435.092 175.035 432.612 177.873C433.058 178.096 433.423 178.356 433.8 178.681C436.139 180.699 438.032 182.915 438.184 186.185C438.265 187.936 437.48 188.873 436.377 190.061L436.406 191.218C435.954 191.849 435.465 192.501 434.881 193.016C430.288 197.071 418.265 195.434 412.554 195.204L412.938 171.953C412.936 168.732 413.453 164.251 411.723 161.452L411.64 161.32ZM420.022 179.411L415.495 179.579C415.969 183.871 416.288 188.112 415.789 192.421C419.072 192.574 425.377 193.484 428.364 192.376C430.69 191.927 432.562 190.964 433.968 188.918C434.812 187.692 434.833 185.622 434.527 184.196C434.214 182.735 432.777 181.178 431.512 180.421C428.72 178.749 423.215 179.165 420.022 179.411ZM414.668 164.595C416.579 167.302 415.742 173.259 415.663 176.705C419.049 176.867 427.694 177.931 430.39 175.531C430.642 175.306 430.795 175.105 430.902 174.782C432.169 173.811 433.062 173.068 433.318 171.374C433.578 169.656 433.144 167.86 432.061 166.497C431.303 165.543 430.053 164.478 428.803 164.364C424.543 163.976 418.845 163.844 414.668 164.595Z"/>
	<path fill="#F5FBF1" d="M713.918 53.9392L721.9 53.7616L721.946 118.464L745.079 118.477C745.1 120.828 745.662 127.32 744.187 129.058L740.364 129.242L710.341 129.219C710.388 121.248 709.77 55.9881 710.889 54.3144L713.918 53.9392Z"/>
	<path fill="white" d="M376.398 53.0127C384.845 52.5321 391.455 54.9125 399.009 58.4054L398.911 71.4816L398.22 70.878C391.597 65.7052 383.617 62.4804 375.12 63.5789C367.518 64.5618 360.224 68.615 355.587 74.7479C350.889 80.9624 349.033 88.4667 350.118 96.1478C351.08 102.96 356.251 110.317 361.726 114.364C368.442 119.329 375.803 120.389 383.871 119.179C386.915 118.722 391.128 117.923 393.055 115.308C395.342 114.613 397.097 112.982 398.912 111.495L398.971 124.623C393.897 127.308 388.992 128.917 383.286 129.688C372.03 131.21 361.061 127.246 352.207 120.487C344.407 114.533 340.135 105.308 338.892 95.7367C337.688 86.4708 340.617 76.2745 346.305 68.8929C354.09 58.7883 363.979 54.5857 376.398 53.0127Z"/>
	<path fill="white" d="M302.124 53.0121C307.204 52.2484 313.506 53.6217 317.915 56.1049C324.048 59.559 325.729 63.9651 327.528 70.3646C323.654 70.8431 319.67 70.7341 315.793 70.3189C315.476 69.5651 315.102 68.7728 314.575 68.1425C312.582 65.7599 309.487 63.609 306.314 63.3891C302.842 63.1484 299.533 63.8069 296.886 66.1793C295.206 67.6846 294.083 70.2938 294 72.5249C293.719 80.029 309.877 84.6367 315.424 87.6357C318.418 89.2543 321.311 91.4121 323.629 93.9071C326.77 97.2875 328.278 102.659 328.08 107.193C327.803 113.545 324.582 119.905 319.898 124.134C313.017 130.347 305.344 129.88 296.664 129.463C293.981 128.65 291.543 127.832 289.228 126.182C282.203 121.172 280.064 114.242 278.716 106.104C282.474 105.763 286.074 105.461 289.838 105.853L290.66 109.632C291.541 113.331 293.531 116.121 296.798 118.094C300.325 120.225 303.889 120.128 307.792 119.148C310.851 118.381 313.566 115.534 315.123 112.918C316.507 110.592 317.042 107.098 316.365 104.482C314.054 95.5407 299.047 92.6106 292.142 88.5186C287.882 85.994 284.174 82.3073 282.952 77.3671C281.715 72.3653 282.705 67.3135 285.372 62.9603C289.217 56.6845 295.363 54.6135 302.124 53.0121Z"/>
	<path fill="#F5FBF1" d="M656.749 53.9391L658.11 53.8381C669.256 53.4127 683.675 52.8268 692.408 61.0306C696.047 64.4493 697.646 69.8269 697.821 74.6867C698.02 80.2115 696.909 86.9896 692.99 91.1343C685.983 98.546 675.065 98.507 665.644 98.796L664.497 100.7C665.909 103.025 665.316 107.131 665.315 109.821L665.291 129.165L653.392 129.195L653.402 72.0117C653.407 68.9342 652.731 56.0502 653.918 54.3118L656.749 53.9391ZM656.922 64.5877C660.011 66.1685 662.663 68.1976 665.405 70.3063L665.411 88.2284C670.073 88.1369 678.386 88.7496 681.891 85.2831C682.076 85.0997 682.172 84.858 682.241 84.6113C683.979 83.6144 685.01 81.9386 685.528 80.02C686.421 76.7162 685.889 72.1679 684.13 69.2451C682.653 66.7905 679.666 65.5192 676.987 64.8851C670.663 63.3884 663.388 64.6167 656.922 64.5877Z"/>
	<path fill="#F6FBF2" d="M785.936 50.3251C787.442 51.2232 788.626 54.3475 789.408 55.936L797.312 72.5263L824.601 129.19C820.786 129.209 816.329 129.682 812.597 129.022L804.032 110.677L779.287 110.734L760.078 111.051L766.613 116.036L760.133 129.16L748.083 129.402L778.131 67.2825C780.546 62.1825 784.875 55.9662 785.905 50.4924L785.936 50.3251ZM785.253 75.2364C785.968 77.5662 775.637 97.0687 774.037 100.485L786.702 100.506L798.91 100.527L791.594 85.0253C790.075 81.834 788.677 78.4372 786.697 75.5014L785.253 75.2364Z"/>
	<path fill="#FBF6EF" d="M443.204 50.2349L444.368 50.6983L482.081 129.161C478.288 129.162 474.121 129.508 470.38 128.957L461.758 110.672L437.777 110.654L417.524 111.151L424.449 116.038L417.906 129.191L406.122 129.18L431.386 76.2564C435.103 68.5261 439.645 60.7539 442.822 52.8076C443.163 51.9543 443.299 51.1519 443.204 50.2349ZM443.248 74.3613L443.249 74.5028C443.229 76.934 441.805 79.3358 440.786 81.4877L434.679 94.5835C433.857 96.324 432.406 98.5539 432.013 100.41L444.265 100.478L456.552 100.476C454.968 96.9804 445.435 75.4749 443.248 74.3613Z"/>
	<path fill="#F6FBF2" d="M833.878 50.0751L834.333 50.3086C837.272 51.8234 839.798 55.0219 842.139 57.3872L857.481 73.1298L890.752 106.491L890.599 54.1758L902.475 54.2081L902.563 106.834L902.547 122.918C902.54 125.654 902.985 129.263 901.665 131.724L901.428 132.222L846.755 76.4797C846.402 77.5022 846.584 78.9704 846.576 80.0708L846.531 88.2806L846.512 129.215L834.61 129.267L834.54 85.4084L834.668 62.401C834.674 58.7331 835.268 53.6897 833.94 50.235L833.878 50.0751Z"/>
	<path fill="#FBF6EF" d="M491.437 49.8438C494.112 50.8508 497.197 54.8137 499.222 56.8572L515.149 73.1098L548.215 106.52L548.235 54.1428L560.191 54.2025L560.213 110.088L560.214 124.597C560.198 126.121 560.479 128.474 560.138 129.871C560.045 130.249 559.514 130.902 559.296 131.262C559.328 131.701 559.25 131.931 559.067 132.327L504.065 76.7126L504.076 129.158L492.245 129.186L492.254 72.1377L492.248 57.9311C492.242 55.3502 492.563 52.3949 491.503 49.9891L491.437 49.8438Z"/>
	<path fill="#F5FBF1" d="M597.849 53.4761C600.075 53.1938 602.338 53.1852 604.571 53.4149C608.944 53.8651 613.02 56.0536 615.75 59.4953C618.205 62.591 619.678 67.3575 619.231 71.3017C618.445 78.2389 611.799 83.3963 606.776 87.408L620.624 104.207L628.48 94.2063L635.912 101.469L627.012 112.738L640.866 129.192L629.616 129.193L626.72 129.144C624.862 125.878 622.064 123.001 619.626 120.148L612.64 125.327C606.325 129.281 599.545 131.638 592.059 129.89C586.227 128.527 580.857 125.021 577.687 119.88C574.822 115.231 573.758 108.938 575.037 103.595C577.029 95.2699 584.44 89.8267 591.372 85.5939C588.573 82.7045 585.654 79.2809 584.53 75.3486C583.272 70.9458 583.482 65.5055 585.805 61.4616C588.591 56.6132 592.708 54.8435 597.849 53.4761ZM597.494 93.8191C593.293 98.289 584.893 101.776 585.146 108.909C585.26 112.112 587.038 115.02 589.364 117.143C591.419 119.019 594.459 120.585 597.313 120.423C598.247 120.369 598.908 120.351 599.695 119.826C604.968 118.611 608.807 115.118 612.827 111.723L603.117 100.17C601.413 98.1144 599.62 95.4208 597.494 93.8191ZM597.979 62.7359C596.092 64.5102 594.402 65.922 594.334 68.6841C594.253 71.9587 596.731 75.6602 598.93 77.9418L600.076 79.067C601.315 78.8106 601.836 78.0588 602.589 77.1282C605.146 75.9042 607.449 73.444 608.403 70.7607C608.893 69.3815 608.973 67.705 608.274 66.3709C607.389 64.681 605.518 63.1576 603.678 62.668C601.91 62.1974 599.758 62.3565 597.979 62.7359Z"/>
</svg>
